<svg xmlns="http://www.w3.org/2000/svg" viewBox="0 0 220 120" role="img" aria-label="Running sable silhouette">
  <g fill="#f6f7fb">
    <path d="M37 65c5-10 18-21 34-24 13-3 28-1 42 5 10 4 21 8 38 8 13 0 24 4 31 10 5 4 8 9 8 14 0 3-2 5-5 5h-17c-5 0-9 2-13 5l-19 15c-5 4-10 6-16 6h-15c-2 0-3-2-2-4l6-12c1-2 1-4 0-6l-3-6c-1-2-4-3-6-2l-19 11c-5 3-10 4-15 4H39c-4 0-7-2-7-6 0-7 1-13 5-19z"/>
    <path d="M140 109c-2 0-3-2-2-4l9-15c2-3 2-6 2-9V73c0-2 1-3 3-3h10c2 0 3 1 3 3v6c0 6-2 12-6 17l-11 11c-2 1-5 2-8 2z"/>
    <path d="M76 107H64c-2 0-3-2-2-4l10-15c3-4 4-9 4-14v-6c0-2 1-3 3-3h9c2 0 3 1 3 3v7c0 7-2 14-6 20l-7 9c-1 2-2 3-4 3z"/>
    <path d="M25 91H13c-2 0-4-2-4-4 0-2 1-4 3-6l17-14c4-3 6-8 7-13l1-8c0-2 2-3 4-3h10c2 0 3 1 3 3v7c0 8-2 16-7 22L30 88c-2 2-3 3-5 3z"/>
    <path d="M177 76h-11c-3 0-6-2-8-4l-10-11c-2-2-2-5 0-7l7-7c1-1 4-2 6-1l16 8c8 4 15 10 19 17 1 2 0 5-3 5h-16z"/>
    <path d="M40 61c0-14 10-28 26-35 8-4 18-5 28-4 4 1 7 5 5 9-2 5-7 8-12 8H70c-5 0-10 2-14 5l-13 12c-2 2-5 4-8 4-3 0-5-2-5-5v-6z"/>
    <circle cx="80" cy="32" r="4" fill="#2c313f"/>
    <path d="M71 28l-12-8c-2-1-2-4 0-5l6-4c2-1 4-1 5 1l7 10-6 6z"/>
    <path d="M92 26l8-10c2-2 5-2 7 0l4 4c2 2 1 5-1 6l-12 6-6-6z"/>
  </g>
</svg>
